<svg width="130" height="26" viewBox="0 0 130 26" fill="none" xmlns="http://www.w3.org/2000/svg">
<path d="M12.4294 1.75623C12.609 1.20345 13.391 1.20344 13.5706 1.75623L15.784 8.56819C15.8643 8.8154 16.0947 8.98278 16.3546 8.98278H23.5171C24.0984 8.98278 24.34 9.72655 23.8698 10.0682L18.0752 14.2782C17.8649 14.431 17.7769 14.7018 17.8572 14.949L20.0706 21.761C20.2502 22.3138 19.6175 22.7735 19.1473 22.4318L13.3527 18.2218C13.1424 18.069 12.8576 18.069 12.6473 18.2218L6.85273 22.4318C6.3825 22.7734 5.74981 22.3138 5.92943 21.761L8.14277 14.949C8.22309 14.7018 8.13509 14.431 7.9248 14.2782L2.13021 10.0682C1.65998 9.72655 1.90164 8.98278 2.48288 8.98278H9.64539C9.90533 8.98278 10.1357 8.8154 10.216 8.56819L12.4294 1.75623Z" fill="#4CAF50"/>
<path d="M38.4294 1.75623C38.609 1.20345 39.391 1.20344 39.5706 1.75623L41.784 8.56819C41.8643 8.8154 42.0947 8.98278 42.3546 8.98278H49.5171C50.0984 8.98278 50.34 9.72655 49.8698 10.0682L44.0752 14.2782C43.8649 14.431 43.7769 14.7018 43.8572 14.949L46.0706 21.761C46.2502 22.3138 45.6175 22.7735 45.1473 22.4318L39.3527 18.2218C39.1424 18.069 38.8576 18.069 38.6473 18.2218L32.8527 22.4318C32.3825 22.7734 31.7498 22.3138 31.9294 21.761L34.1428 14.949C34.2231 14.7018 34.1351 14.431 33.9248 14.2782L28.1302 10.0682C27.66 9.72655 27.9016 8.98278 28.4829 8.98278H35.6454C35.9053 8.98278 36.1357 8.8154 36.216 8.56819L38.4294 1.75623Z" fill="#4CAF50"/>
<path d="M64.4294 1.75623C64.609 1.20345 65.391 1.20344 65.5706 1.75623L67.784 8.56819C67.8643 8.8154 68.0947 8.98278 68.3546 8.98278H75.5171C76.0984 8.98278 76.34 9.72655 75.8698 10.0682L70.0752 14.2782C69.8649 14.431 69.7769 14.7018 69.8572 14.949L72.0706 21.761C72.2502 22.3138 71.6175 22.7735 71.1473 22.4318L65.3527 18.2218C65.1424 18.069 64.8576 18.069 64.6473 18.2218L58.8527 22.4318C58.3825 22.7734 57.7498 22.3138 57.9294 21.761L60.1428 14.949C60.2231 14.7018 60.1351 14.431 59.9248 14.2782L54.1302 10.0682C53.66 9.72655 53.9016 8.98278 54.4829 8.98278H61.6454C61.9053 8.98278 62.1357 8.8154 62.216 8.56819L64.4294 1.75623Z" fill="#4CAF50"/>
<path d="M90.4294 1.75623C90.609 1.20345 91.391 1.20344 91.5706 1.75623L93.784 8.56819C93.8643 8.8154 94.0947 8.98278 94.3546 8.98278H101.517C102.098 8.98278 102.34 9.72655 101.87 10.0682L96.0752 14.2782C95.8649 14.431 95.7769 14.7018 95.8572 14.949L98.0706 21.761C98.2502 22.3138 97.6175 22.7735 97.1473 22.4318L91.3527 18.2218C91.1424 18.069 90.8576 18.069 90.6473 18.2218L84.8527 22.4318C84.3825 22.7734 83.7498 22.3138 83.9294 21.761L86.1428 14.949C86.2231 14.7018 86.1351 14.431 85.9248 14.2782L80.1302 10.0682C79.66 9.72655 79.9016 8.98278 80.4829 8.98278H87.6454C87.9053 8.98278 88.1357 8.8154 88.216 8.56819L90.4294 1.75623Z" fill="#4CAF50"/>
<path d="M116.429 1.75623C116.609 1.20345 117.391 1.20344 117.571 1.75623L119.784 8.56819C119.864 8.8154 120.095 8.98278 120.355 8.98278H127.517C128.098 8.98278 128.34 9.72655 127.87 10.0682L122.075 14.2782C121.865 14.431 121.777 14.7018 121.857 14.949L124.071 21.761C124.25 22.3138 123.617 22.7735 123.147 22.4318L117.353 18.2218C117.142 18.069 116.858 18.069 116.647 18.2218L110.853 22.4318C110.383 22.7734 109.75 22.3138 109.929 21.761L112.143 14.949C112.223 14.7018 112.135 14.431 111.925 14.2782L106.13 10.0682C105.66 9.72655 105.902 8.98278 106.483 8.98278H113.645C113.905 8.98278 114.136 8.8154 114.216 8.56819L116.429 1.75623Z" fill="#4CAF50"/>
</svg>
